Coordinates
version=1
nRows=21
nColumns=22
inDegrees=yes

Units are S.I. units (second, meters, Newtons, ...)
If the header above contains a line with 'inDegrees', this indicates whether rotational values are in degrees (yes) or radians (no).

endheader
time	pelvis_tilt	pelvis_list	pelvis_rotation	pelvis_tx	pelvis_ty	pelvis_tz	hip_flexion_r	hip_adduction_r	hip_rotation_r	knee_angle_r	ankle_angle_r	subtalar_angle_r	hip_flexion_l	hip_adduction_l	hip_rotation_l	knee_angle_l	ankle_angle_l	subtalar_angle_l	lumbar_extension	lumbar_bending	lumbar_rotation
      0.01000000	     -1.21368240	     -6.19034016	     -3.73564499	      0.12559713	      0.92988923	      1.28355696	      0.25634443	     10.02800149	     -8.14359381	    -14.47437598	     14.42259663	     -1.71731013	     20.87764888	     -8.40163875	      1.80207110	    -51.36318616	     10.32174432	     -5.43805585	    -12.41380351	      3.16634488	     -1.93685427
      0.02000000	     -1.04653932	     -6.11803824	     -3.81610462	      0.12747902	      0.92997072	      1.28389101	      0.00614015	      9.93667758	     -8.04707680	    -14.58856204	     14.54011231	     -1.66077163	     21.50563843	     -8.20332533	      1.92396578	    -52.55608050	      9.91473756	     -5.45337482	    -12.67389278	      3.05146317	     -1.64717020
      0.03000000	     -0.99674582	     -5.99988152	     -3.92791751	      0.12965092	      0.92984383	      1.28423015	     -0.08323196	      9.79171677	     -7.93954431	    -14.80056263	     14.68561749	     -1.55313469	     22.37429836	     -7.92023784	      2.06094580	    -53.80471405	      9.52417266	     -5.32813800	    -12.79781654	      2.89596547	     -1.31611437
      0.04000000	     -0.90075734	     -5.86281801	     -4.05599111	      0.13217945	      0.92979737	      1.28458071	     -0.25505621	      9.61583635	     -7.85501005	    -14.99248693	     14.89102981	     -1.43272272	     23.22948096	     -7.60921524	      2.13004251	    -54.96794451	      9.18956619	     -5.12431710	    -12.96776327	      2.71384614	     -0.95956221
      0.05000000	     -0.76509811	     -5.69177269	     -4.20559593	      0.13498810	      0.92984973	      1.28493921	     -0.50469591	      9.39760127	     -7.74536167	    -15.14851779	     15.14506477	     -1.32291283	     24.03368539	     -7.26677540	      2.10293968	    -55.94725601	      8.87003058	     -5.00420664	    -13.17102760	      2.48692254	     -0.61211637
      0.06000000	     -0.75035839	     -5.46092856	     -4.39265778	      0.13793905	      0.92972614	      1.28528510	     -0.58966222	      9.10695686	     -7.67319700	    -15.37704835	     15.39794652	     -1.09584299	     24.93859561	     -6.86126643	      2.02614671	    -56.68985548	      8.67961186	     -4.62094566	    -13.21447752	      2.19758275	     -0.23249051
      0.07000000	     -0.69214799	     -5.24002559	     -4.58067106	      0.14109788	      0.92968612	      1.28563360	     -0.78049048	      8.82655559	     -7.60459669	    -15.51837541	     15.69397439	     -0.88097450	     25.75267110	     -6.50158343	      1.84907994	    -57.17034981	      8.47153334	     -4.26649174	    -13.29238034	      1.91545720	      0.12153728
      0.08000000	     -0.64377722	     -5.01490682	     -4.78026747	      0.14441740	      0.92963544	      1.28598922	     -0.99377870	      8.54306272	     -7.53053658	    -15.61790597	     15.98515685	     -0.69257629	     26.51767772	     -6.17129337	      1.59658046	    -57.36966421	      8.29410714	     -3.91612741	    -13.33805972	      1.62370380	      0.46792021
      0.09000000	     -0.60752673	     -4.79221436	     -4.98314271	      0.14787058	      0.92956738	      1.28634308	     -1.24031359	      8.27110472	     -7.41289401	    -15.64915440	     16.24845560	     -0.57281029	     27.23154869	     -5.87564634	      1.29136072	    -57.28448560	      8.12467925	     -3.60224645	    -13.35465508	      1.33252055	      0.79945507
      0.10000000	     -0.58759695	     -4.58067177	     -5.18638575	      0.15145440	      0.92946146	      1.28668276	     -1.51649612	      8.01969453	     -7.25548381	    -15.61318343	     16.45141831	     -0.54679457	     27.89640981	     -5.62216168	      0.95251545	    -56.92639710	      7.96623097	     -3.30912360	    -13.33880551	      1.05532505	      1.11669285
      0.11000000	     -0.57866223	     -4.38777592	     -5.37779959	      0.15515802	      0.92931662	      1.28703274	     -1.82543764	      7.80010153	     -7.06604842	    -15.51500789	     16.59109277	     -0.61559240	     28.51107059	     -5.42552810	      0.58352556	    -56.31319884	      7.80397020	     -3.11487707	    -13.30077913	      0.79087137	      1.41541869
      0.12000000	     -0.57777159	     -4.21995479	     -5.55366641	      0.15898017	      0.92912621	      1.28732011	     -2.16553638	      7.61036154	     -6.86097715	    -15.36316703	     16.69804194	     -0.76846847	     29.07296291	     -5.27264201	      0.21470288	    -55.46532792	      7.63903185	     -2.97599679	    -13.24936210	      0.56492860	      1.69836530
      0.13000000	     -0.58399751	     -4.07848761	     -5.69862710	      0.16290509	      0.92888772	      1.28755173	     -2.53299464	      7.45280544	     -6.66208150	    -15.16230042	     16.78101095	     -0.95719655	     29.58703613	     -5.15769368	     -0.13421192	    -54.40168386	      7.46436945	     -2.92758434	    -13.19051454	      0.36983898	      1.94915761
      0.14000000	     -0.59479131	     -3.96449325	     -5.80338178	      0.16694174	      0.92859446	      1.28768863	     -2.92542796	      7.32440569	     -6.48939765	    -14.92146056	     16.86043841	     -1.14113919	     30.05410557	     -5.06926986	     -0.45000228	    -53.14545836	      7.28221769	     -2.97335362	    -13.12946797	      0.21639205	      2.16345042
      0.15000000	     -0.61038105	     -3.87638820	     -5.87085925	      0.17108880	      0.92823771	      1.28774739	     -3.33554809	      7.22249195	     -6.35219841	    -14.65422170	     16.94708760	     -1.28532704	     30.47624809	     -5.00451971	     -0.73338096	    -51.71597717	      7.08009262	     -3.10856897	    -13.06722860	      0.09530458	      2.34556974
      0.16000000	     -0.62790229	     -3.81190376	     -5.90237050	      0.17537737	      0.92781059	      1.28770407	     -3.76576132	      7.14150656	     -6.24892940	    -14.36593869	     17.05504052	     -1.37941378	     30.84893616	     -4.95451201	     -0.98632949	    -50.13327963	      6.85747149	     -3.33503058	    -13.00393316	      0.01143397	      2.49755331
      0.17000000	     -0.66362624	     -3.76963299	     -5.90800493	      0.17980140	      0.92727862	      1.28757937	     -4.19008160	      7.08149802	     -6.18379868	    -14.07096294	     17.18005098	     -1.40210000	     31.19390390	     -4.92034478	     -1.21443999	    -48.42160094	      6.58083211	     -3.61203789	    -12.91972686	     -0.03891459	      2.62875848
      0.18000000	     -0.69066114	     -3.74388406	     -5.88900459	      0.18439592	      0.92667136	      1.28736632	     -4.64748619	      7.03432621	     -6.13188096	    -13.75681106	     17.34407920	     -1.36231545	     31.47574479	     -4.88760470	     -1.41720452	    -46.59403119	      6.31582094	     -4.04196736	    -12.84199232	     -0.06573879	      2.73437283
      0.19000000	     -0.77098925	     -3.72939617	     -5.86737210	      0.18910591	      0.92588584	      1.28710265	     -5.03431330	      6.99629509	     -6.12236247	    -13.48322528	     17.51113095	     -1.29779846	     31.78362836	     -4.87589723	     -1.62816666	    -44.69305312	      5.87317994	     -4.33805518	    -12.70136156	     -0.07355807	      2.85039200
      0.20000000	     -0.84372900	     -3.71976763	     -5.83477352	      0.19397529	      0.92501655	      1.28677149	     -5.44034330	      6.95782437	     -6.11979994	    -13.21146597	     17.71608549	     -1.20096526	     32.03320452	     -4.85778474	     -1.82945211	    -42.71155085	      5.42336629	     -4.69762753	    -12.56639659	     -0.07827490	      2.95281107
      0.21000000	     -0.94254146	     -3.72244711	     -5.79531977	      0.19896625	      0.92400234	      1.28639335	     -5.81697588	      6.93215293	     -6.12323586	    -12.96034103	     17.93488167	     -1.10160120	     32.27595036	     -4.84853764	     -2.01994580	    -40.68262857	      4.93069790	     -5.01026136	    -12.40102056	     -0.07032569	      3.04546982
